<?xml version="1.0" encoding="UTF-8" standalone="no"?>
<!DOCTYPE svg PUBLIC "-//W3C//DTD SVG 1.1//EN"
 "http://www.w3.org/Graphics/SVG/1.1/DTD/svg11.dtd">
<!-- Generated by graphviz version 2.43.0 (0)
 -->
<!-- Title: SerialProtocol::removeAccentMarker Pages: 1 -->
<svg width="366pt" height="38pt"
 viewBox="0.00 0.00 366.00 38.00" xmlns="http://www.w3.org/2000/svg" xmlns:xlink="http://www.w3.org/1999/xlink">
<g id="graph0" class="graph" transform="scale(1 1) rotate(0) translate(4 34)">
<title>SerialProtocol::removeAccentMarker</title>
<!-- Node1 -->
<g id="Node000001" class="node">
<title>Node1</title>
<g id="a_Node000001"><a xlink:title="Remove acentos e caracteres especiais de uma string.">
<polygon fill="#999999" stroke="#666666" points="358,-30 197,-30 197,0 358,0 358,-30"/>
<text text-anchor="start" x="205" y="-18" font-family="Helvetica,sans-Serif" font-size="10.00">SerialProtocol::removeAccent</text>
<text text-anchor="middle" x="277.5" y="-7" font-family="Helvetica,sans-Serif" font-size="10.00">Marker</text>
</a>
</g>
</g>
<!-- Node2 -->
<g id="Node000002" class="node">
<title>Node2</title>
<g id="a_Node000002"><a xlink:href="CristalLiq-serial_8ino.html#a7b10d8ce17e310e857423a407e4d1250" target="_top" xlink:title="Interpreta a mensagem recebida pela serial USB e atualiza a estrutura global netMessage.">
<polygon fill="white" stroke="#666666" points="161,-24.5 74,-24.5 74,-5.5 161,-5.5 161,-24.5"/>
<text text-anchor="middle" x="117.5" y="-12.5" font-family="Helvetica,sans-Serif" font-size="10.00">parseMessage</text>
</a>
</g>
</g>
<!-- Node1&#45;&gt;Node2 -->
<g id="edge1_Node000001_Node000002" class="edge">
<title>Node1&#45;&gt;Node2</title>
<g id="a_edge1_Node000001_Node000002"><a xlink:title=" ">
<path fill="none" stroke="#63b8ff" d="M186.56,-15C177.74,-15 169.1,-15 161.1,-15"/>
<polygon fill="#63b8ff" stroke="#63b8ff" points="186.57,-18.5 196.57,-15 186.57,-11.5 186.57,-18.5"/>
</a>
</g>
</g>
<!-- Node3 -->
<g id="Node000003" class="node">
<title>Node3</title>
<g id="a_Node000003"><a xlink:href="CristalLiq-serial_8ino.html#afe461d27b9c48d5921c00d521181f12f" target="_top" xlink:title="Loop principal do firmware.">
<polygon fill="white" stroke="#666666" points="38,-24.5 0,-24.5 0,-5.5 38,-5.5 38,-24.5"/>
<text text-anchor="middle" x="19" y="-12.5" font-family="Helvetica,sans-Serif" font-size="10.00">loop</text>
</a>
</g>
</g>
<!-- Node2&#45;&gt;Node3 -->
<g id="edge2_Node000002_Node000003" class="edge">
<title>Node2&#45;&gt;Node3</title>
<g id="a_edge2_Node000002_Node000003"><a xlink:title=" ">
<path fill="none" stroke="#63b8ff" d="M63.87,-15C54.65,-15 45.65,-15 38.22,-15"/>
<polygon fill="#63b8ff" stroke="#63b8ff" points="63.89,-18.5 73.89,-15 63.89,-11.5 63.89,-18.5"/>
</a>
</g>
</g>
</g>
</svg>
