<?xml version="1.0" encoding="UTF-8" standalone="no"?>
<!DOCTYPE svg PUBLIC "-//W3C//DTD SVG 1.1//EN"
 "http://www.w3.org/Graphics/SVG/1.1/DTD/svg11.dtd">
<!-- Generated by graphviz version 2.43.0 (0)
 -->
<!-- Title: loop Pages: 1 -->
<svg width="436pt" height="142pt"
 viewBox="0.00 0.00 436.00 142.00" xmlns="http://www.w3.org/2000/svg" xmlns:xlink="http://www.w3.org/1999/xlink">

<svg id="main" version="1.1" xmlns="http://www.w3.org/2000/svg" xmlns:xlink="http://www.w3.org/1999/xlink" xml:space="preserve" onload="init(evt)">
<style type="text/css"><![CDATA[
.node, .edge {opacity: 0.7;}
.node.selected, .edge.selected {opacity: 1;}
.edge:hover path { stroke: red; }
.edge:hover polygon { stroke: red; fill: red; }
]]></style>
<script type="application/ecmascript" xlink:href="svg.min.js"/>
<svg id="graph" class="graph">
<g id="graph0" class="graph" transform="scale(1 1) rotate(0) translate(4 138)">
<title>loop</title>
<!-- Node1 -->
<g id="Node000001" class="node">
<title>Node1</title>
<g id="a_Node000001"><a xlink:title="Loop principal do firmware.">
<polygon fill="#999999" stroke="#666666" points="38,-74 0,-74 0,-55 38,-55 38,-74"/>
<text text-anchor="middle" x="19" y="-62" font-family="Helvetica,sans-Serif" font-size="10.00">loop</text>
</a>
</g>
</g>
<!-- Node2 -->
<g id="Node000002" class="node">
<title>Node2</title>
<g id="a_Node000002"><a xlink:href="CristalLiq-serial_8ino.html#a03c938c23e2eba81d9cdae2eae52aeb5" target="_top" xlink:title="Atualiza o conteúdo exibido no display LCD linha a linha.">
<polygon fill="white" stroke="#666666" points="198.5,-133 106.5,-133 106.5,-114 198.5,-114 198.5,-133"/>
<text text-anchor="middle" x="152.5" y="-121" font-family="Helvetica,sans-Serif" font-size="10.00">atualizaDisplay</text>
</a>
</g>
</g>
<!-- Node1&#45;&gt;Node2 -->
<g id="edge1_Node000001_Node000002" class="edge">
<title>Node1&#45;&gt;Node2</title>
<g id="a_edge1_Node000001_Node000002"><a xlink:title=" ">
<path fill="none" stroke="#63b8ff" d="M31.75,-74.23C42.26,-82.49 58.36,-94.16 74,-101.5 81.74,-105.13 90.19,-108.28 98.59,-110.97"/>
<polygon fill="#63b8ff" stroke="#63b8ff" points="97.78,-114.38 108.36,-113.92 99.8,-107.68 97.78,-114.38"/>
</a>
</g>
</g>
<!-- Node4 -->
<g id="Node000004" class="node">
<title>Node4</title>
<g id="a_Node000004"><a xlink:href="CristalLiq-serial_8ino.html#a7b10d8ce17e310e857423a407e4d1250" target="_top" xlink:title="Interpreta a mensagem recebida pela serial USB e atualiza a estrutura global netMessage.">
<polygon fill="white" stroke="#666666" points="196,-93 109,-93 109,-74 196,-74 196,-93"/>
<text text-anchor="middle" x="152.5" y="-81" font-family="Helvetica,sans-Serif" font-size="10.00">parseMessage</text>
</a>
</g>
</g>
<!-- Node1&#45;&gt;Node4 -->
<g id="edge3_Node000001_Node000004" class="edge">
<title>Node1&#45;&gt;Node4</title>
<g id="a_edge3_Node000001_Node000004"><a xlink:title=" ">
<path fill="none" stroke="#63b8ff" d="M38.01,-67.1C53.68,-69.37 77.19,-72.76 98.76,-75.88"/>
<polygon fill="#63b8ff" stroke="#63b8ff" points="98.42,-79.37 108.82,-77.33 99.42,-72.44 98.42,-79.37"/>
</a>
</g>
</g>
<!-- Node6 -->
<g id="Node000006" class="node">
<title>Node6</title>
<g id="a_Node000006"><a xlink:href="classSerialProtocol.html#a5348b3afd55a31014ce6ada19a55b294" target="_top" xlink:title="Recebe um frame da TV&#45;Box e atualiza o buffer receivedChars.">
<polygon fill="white" stroke="#666666" points="231,-56 74,-56 74,-37 231,-37 231,-56"/>
<text text-anchor="middle" x="152.5" y="-44" font-family="Helvetica,sans-Serif" font-size="10.00">SerialProtocol::receiveFrame</text>
</a>
</g>
</g>
<!-- Node1&#45;&gt;Node6 -->
<g id="edge5_Node000001_Node000006" class="edge">
<title>Node1&#45;&gt;Node6</title>
<g id="a_edge5_Node000001_Node000006"><a xlink:title=" ">
<path fill="none" stroke="#63b8ff" d="M38.01,-62.03C47.22,-60.77 59.15,-59.14 71.8,-57.41"/>
<polygon fill="#63b8ff" stroke="#63b8ff" points="72.63,-60.83 82.06,-56.01 71.68,-53.89 72.63,-60.83"/>
</a>
</g>
</g>
<!-- Node7 -->
<g id="Node000007" class="node">
<title>Node7</title>
<g id="a_Node000007"><a xlink:href="classSerialProtocol.html#a1c9c0198d4dcd49daae510211c02a360" target="_top" xlink:title="Envia uma mensagem via serial para a TV&#45;Box.">
<polygon fill="white" stroke="#666666" points="224.5,-19 80.5,-19 80.5,0 224.5,0 224.5,-19"/>
<text text-anchor="middle" x="152.5" y="-7" font-family="Helvetica,sans-Serif" font-size="10.00">SerialProtocol::sendFrame</text>
</a>
</g>
</g>
<!-- Node1&#45;&gt;Node7 -->
<g id="edge6_Node000001_Node000007" class="edge">
<title>Node1&#45;&gt;Node7</title>
<g id="a_edge6_Node000001_Node000007"><a xlink:title=" ">
<path fill="none" stroke="#63b8ff" d="M31.26,-54.92C41.69,-46.51 57.98,-34.55 74,-27.5 78.7,-25.43 83.67,-23.59 88.73,-21.94"/>
<polygon fill="#63b8ff" stroke="#63b8ff" points="89.95,-25.23 98.53,-19.01 87.95,-18.52 89.95,-25.23"/>
</a>
</g>
</g>
<!-- Node3 -->
<g id="Node000003" class="node">
<title>Node3</title>
<g id="a_Node000003"><a xlink:href="CristalLiq-serial_8ino.html#a48843d919506d0d897ff1fbf86448110" target="_top" xlink:title="Copia um trecho de uma string de origem para um buffer de destino, ajustando posição inicial e preenc...">
<polygon fill="white" stroke="#666666" points="372.5,-134 322.5,-134 322.5,-115 372.5,-115 372.5,-134"/>
<text text-anchor="middle" x="347.5" y="-122" font-family="Helvetica,sans-Serif" font-size="10.00">copiaN</text>
</a>
</g>
</g>
<!-- Node2&#45;&gt;Node3 -->
<g id="edge2_Node000002_Node000003" class="edge">
<title>Node2&#45;&gt;Node3</title>
<g id="a_edge2_Node000002_Node000003"><a xlink:title=" ">
<path fill="none" stroke="#63b8ff" d="M198.75,-123.73C233.48,-123.91 280.7,-124.16 312.32,-124.32"/>
<polygon fill="#63b8ff" stroke="#63b8ff" points="312.38,-127.82 322.4,-124.38 312.42,-120.82 312.38,-127.82"/>
</a>
</g>
</g>
<!-- Node5 -->
<g id="Node000005" class="node">
<title>Node5</title>
<g id="a_Node000005"><a xlink:href="classSerialProtocol.html#a9d1f14dd8d42c0eddbaab83e22e87760" target="_top" xlink:title="Remove acentos e caracteres especiais de uma string.">
<polygon fill="white" stroke="#666666" points="428,-96.5 267,-96.5 267,-66.5 428,-66.5 428,-96.5"/>
<text text-anchor="start" x="275" y="-84.5" font-family="Helvetica,sans-Serif" font-size="10.00">SerialProtocol::removeAccent</text>
<text text-anchor="middle" x="347.5" y="-73.5" font-family="Helvetica,sans-Serif" font-size="10.00">Marker</text>
</a>
</g>
</g>
<!-- Node4&#45;&gt;Node5 -->
<g id="edge4_Node000004_Node000005" class="edge">
<title>Node4&#45;&gt;Node5</title>
<g id="a_edge4_Node000004_Node000005"><a xlink:title=" ">
<path fill="none" stroke="#63b8ff" d="M196.33,-83.06C214.18,-82.87 235.62,-82.65 256.63,-82.43"/>
<polygon fill="#63b8ff" stroke="#63b8ff" points="256.94,-85.93 266.9,-82.32 256.86,-78.93 256.94,-85.93"/>
</a>
</g>
</g>
</g>
</svg>
</svg>

<style type='text/css'>
<![CDATA[
[data-mouse-over-selected='false'] { opacity: 0.7; }
[data-mouse-over-selected='true']  { opacity: 1.0; }
]]>
</style>
<script type="application/ecmascript"><![CDATA[
document.addEventListener('DOMContentLoaded', (event) => {
  highlightEdges();
  highlightAdjacentNodes();
});
]]></script>
</svg>
