<?xml version="1.0" encoding="UTF-8" standalone="no"?>
<!DOCTYPE svg PUBLIC "-//W3C//DTD SVG 1.1//EN"
 "http://www.w3.org/Graphics/SVG/1.1/DTD/svg11.dtd">
<!-- Generated by graphviz version 2.43.0 (0)
 -->
<!-- Title: copiaN Pages: 1 -->
<svg width="260pt" height="27pt"
 viewBox="0.00 0.00 260.00 27.00" xmlns="http://www.w3.org/2000/svg" xmlns:xlink="http://www.w3.org/1999/xlink">
<g id="graph0" class="graph" transform="scale(1 1) rotate(0) translate(4 23)">
<title>copiaN</title>
<!-- Node1 -->
<g id="Node000001" class="node">
<title>Node1</title>
<g id="a_Node000001"><a xlink:title="Copia um trecho de uma string de origem para um buffer de destino, ajustando posição inicial e preenc...">
<polygon fill="#999999" stroke="#666666" points="252,-19 202,-19 202,0 252,0 252,-19"/>
<text text-anchor="middle" x="227" y="-7" font-family="Helvetica,sans-Serif" font-size="10.00">copiaN</text>
</a>
</g>
</g>
<!-- Node2 -->
<g id="Node000002" class="node">
<title>Node2</title>
<g id="a_Node000002"><a xlink:href="CristalLiq-serial_8ino.html#a03c938c23e2eba81d9cdae2eae52aeb5" target="_top" xlink:title="Atualiza o conteúdo exibido no display LCD linha a linha.">
<polygon fill="white" stroke="#666666" points="166,-19 74,-19 74,0 166,0 166,-19"/>
<text text-anchor="middle" x="120" y="-7" font-family="Helvetica,sans-Serif" font-size="10.00">atualizaDisplay</text>
</a>
</g>
</g>
<!-- Node1&#45;&gt;Node2 -->
<g id="edge1_Node000001_Node000002" class="edge">
<title>Node1&#45;&gt;Node2</title>
<g id="a_edge1_Node000001_Node000002"><a xlink:title=" ">
<path fill="none" stroke="#63b8ff" d="M191.9,-9.5C183.65,-9.5 174.7,-9.5 166.03,-9.5"/>
<polygon fill="#63b8ff" stroke="#63b8ff" points="191.91,-13 201.91,-9.5 191.91,-6 191.91,-13"/>
</a>
</g>
</g>
<!-- Node3 -->
<g id="Node000003" class="node">
<title>Node3</title>
<g id="a_Node000003"><a xlink:href="CristalLiq-serial_8ino.html#afe461d27b9c48d5921c00d521181f12f" target="_top" xlink:title="Loop principal do firmware.">
<polygon fill="white" stroke="#666666" points="38,-19 0,-19 0,0 38,0 38,-19"/>
<text text-anchor="middle" x="19" y="-7" font-family="Helvetica,sans-Serif" font-size="10.00">loop</text>
</a>
</g>
</g>
<!-- Node2&#45;&gt;Node3 -->
<g id="edge2_Node000002_Node000003" class="edge">
<title>Node2&#45;&gt;Node3</title>
<g id="a_edge2_Node000002_Node000003"><a xlink:title=" ">
<path fill="none" stroke="#63b8ff" d="M63.75,-9.5C54.49,-9.5 45.49,-9.5 38.1,-9.5"/>
<polygon fill="#63b8ff" stroke="#63b8ff" points="63.85,-13 73.85,-9.5 63.85,-6 63.85,-13"/>
</a>
</g>
</g>
</g>
</svg>
