<?xml version="1.0" encoding="UTF-8" standalone="no"?>
<!DOCTYPE svg PUBLIC "-//W3C//DTD SVG 1.1//EN"
 "http://www.w3.org/Graphics/SVG/1.1/DTD/svg11.dtd">
<!-- Generated by graphviz version 2.43.0 (0)
 -->
<!-- Title: CristalLiq&#45;serial/CristalLiq&#45;serial.ino Pages: 1 -->
<svg width="262pt" height="148pt"
 viewBox="0.00 0.00 261.50 148.00" xmlns="http://www.w3.org/2000/svg" xmlns:xlink="http://www.w3.org/1999/xlink">
<g id="graph0" class="graph" transform="scale(1 1) rotate(0) translate(4 144)">
<title>CristalLiq&#45;serial/CristalLiq&#45;serial.ino</title>
<!-- Node1 -->
<g id="Node000001" class="node">
<title>Node1</title>
<g id="a_Node000001"><a xlink:title="O Arduino Nano cuida da exibição no Display de quatro linhas e do buzzer.">
<polygon fill="#999999" stroke="#666666" points="185,-140 57,-140 57,-110 185,-110 185,-140"/>
<text text-anchor="start" x="65" y="-128" font-family="Helvetica,sans-Serif" font-size="10.00">CristalLiq&#45;serial/Cristal</text>
<text text-anchor="middle" x="121" y="-117" font-family="Helvetica,sans-Serif" font-size="10.00">Liq&#45;serial.ino</text>
</a>
</g>
</g>
<!-- Node2 -->
<g id="Node000002" class="node">
<title>Node2</title>
<g id="a_Node000002"><a xlink:title=" ">
<polygon fill="#e0e0e0" stroke="#999999" points="48,-74 0,-74 0,-55 48,-55 48,-74"/>
<text text-anchor="middle" x="24" y="-62" font-family="Helvetica,sans-Serif" font-size="10.00">Wire.h</text>
</a>
</g>
</g>
<!-- Node1&#45;&gt;Node2 -->
<g id="edge1_Node000001_Node000002" class="edge">
<title>Node1&#45;&gt;Node2</title>
<g id="a_edge1_Node000001_Node000002"><a xlink:title=" ">
<path fill="none" stroke="#63b8ff" d="M97.52,-109.84C82.2,-100.6 62.29,-88.59 47.05,-79.4"/>
<polygon fill="#63b8ff" stroke="#63b8ff" points="48.62,-76.26 38.25,-74.09 45.01,-82.26 48.62,-76.26"/>
</a>
</g>
</g>
<!-- Node3 -->
<g id="Node000003" class="node">
<title>Node3</title>
<g id="a_Node000003"><a xlink:title=" ">
<polygon fill="#e0e0e0" stroke="#999999" points="176,-74 66,-74 66,-55 176,-55 176,-74"/>
<text text-anchor="middle" x="121" y="-62" font-family="Helvetica,sans-Serif" font-size="10.00">LiquidCrystal_I2C.h</text>
</a>
</g>
</g>
<!-- Node1&#45;&gt;Node3 -->
<g id="edge2_Node000001_Node000003" class="edge">
<title>Node1&#45;&gt;Node3</title>
<g id="a_edge2_Node000001_Node000003"><a xlink:title=" ">
<path fill="none" stroke="#63b8ff" d="M121,-109.84C121,-102.21 121,-92.7 121,-84.45"/>
<polygon fill="#63b8ff" stroke="#63b8ff" points="124.5,-84.27 121,-74.27 117.5,-84.27 124.5,-84.27"/>
</a>
</g>
</g>
<!-- Node4 -->
<g id="Node000004" class="node">
<title>Node4</title>
<g id="a_Node000004"><a xlink:href="frame_8h_source.html" target="_top" xlink:title=" ">
<polygon fill="white" stroke="#666666" points="249.5,-74 194.5,-74 194.5,-55 249.5,-55 249.5,-74"/>
<text text-anchor="middle" x="222" y="-62" font-family="Helvetica,sans-Serif" font-size="10.00">frame.h</text>
</a>
</g>
</g>
<!-- Node1&#45;&gt;Node4 -->
<g id="edge3_Node000001_Node000004" class="edge">
<title>Node1&#45;&gt;Node4</title>
<g id="a_edge3_Node000001_Node000004"><a xlink:title=" ">
<path fill="none" stroke="#63b8ff" d="M145.19,-109.99C161.29,-100.66 182.34,-88.47 198.33,-79.21"/>
<polygon fill="#63b8ff" stroke="#63b8ff" points="200.19,-82.18 207.08,-74.14 196.68,-76.12 200.19,-82.18"/>
</a>
</g>
</g>
<!-- Node5 -->
<g id="Node000005" class="node">
<title>Node5</title>
<g id="a_Node000005"><a xlink:title=" ">
<polygon fill="#e0e0e0" stroke="#999999" points="253.5,-19 190.5,-19 190.5,0 253.5,0 253.5,-19"/>
<text text-anchor="middle" x="222" y="-7" font-family="Helvetica,sans-Serif" font-size="10.00">Arduino.h</text>
</a>
</g>
</g>
<!-- Node4&#45;&gt;Node5 -->
<g id="edge4_Node000004_Node000005" class="edge">
<title>Node4&#45;&gt;Node5</title>
<g id="a_edge4_Node000004_Node000005"><a xlink:title=" ">
<path fill="none" stroke="#63b8ff" d="M222,-54.75C222,-47.8 222,-37.85 222,-29.13"/>
<polygon fill="#63b8ff" stroke="#63b8ff" points="225.5,-29.09 222,-19.09 218.5,-29.09 225.5,-29.09"/>
</a>
</g>
</g>
</g>
</svg>
