<?xml version="1.0" encoding="UTF-8" standalone="no"?>
<!DOCTYPE svg PUBLIC "-//W3C//DTD SVG 1.1//EN"
 "http://www.w3.org/Graphics/SVG/1.1/DTD/svg11.dtd">
<!-- Generated by graphviz version 2.43.0 (0)
 -->
<!-- Title: fluxo Pages: 1 -->
<svg width="873pt" height="98pt"
 viewBox="0.00 0.00 873.00 98.00" xmlns="http://www.w3.org/2000/svg" xmlns:xlink="http://www.w3.org/1999/xlink">
<g id="graph0" class="graph" transform="scale(1 1) rotate(0) translate(4 94)">
<title>fluxo</title>
<polygon fill="white" stroke="transparent" points="-4,4 -4,-94 869,-94 869,4 -4,4"/>
<!-- tvbox -->
<g id="node1" class="node">
<title>tvbox</title>
<path fill="none" stroke="black" d="M53,-63C53,-63 12,-63 12,-63 6,-63 0,-57 0,-51 0,-51 0,-39 0,-39 0,-33 6,-27 12,-27 12,-27 53,-27 53,-27 59,-27 65,-33 65,-39 65,-39 65,-51 65,-51 65,-57 59,-63 53,-63"/>
<text text-anchor="middle" x="32.5" y="-41.3" font-family="Helvetica,sans-Serif" font-size="14.00">TV&#45;Box</text>
</g>
<!-- arduino -->
<g id="node2" class="node">
<title>arduino</title>
<path fill="none" stroke="black" d="M464,-63C464,-63 377,-63 377,-63 371,-63 365,-57 365,-51 365,-51 365,-39 365,-39 365,-33 371,-27 377,-27 377,-27 464,-27 464,-27 470,-27 476,-33 476,-39 476,-39 476,-51 476,-51 476,-57 470,-63 464,-63"/>
<text text-anchor="middle" x="420.5" y="-41.3" font-family="Helvetica,sans-Serif" font-size="14.00">Arduino Nano</text>
</g>
<!-- tvbox&#45;&gt;arduino -->
<g id="edge1" class="edge">
<title>tvbox&#45;&gt;arduino</title>
<path fill="none" stroke="black" d="M65.09,-45C128.18,-45 270.9,-45 354.71,-45"/>
<polygon fill="black" stroke="black" points="354.88,-48.5 364.88,-45 354.88,-41.5 354.88,-48.5"/>
<text text-anchor="middle" x="215" y="-48.8" font-family="Times,serif" font-size="14.00">Mensagem serial &lt;code, msg, TTL&gt;</text>
</g>
<!-- arduino&#45;&gt;tvbox -->
<g id="edge4" class="edge">
<title>arduino&#45;&gt;tvbox</title>
<path fill="none" stroke="black" d="M364.77,-29.08C358.81,-27.82 352.81,-26.75 347,-26 230.63,-11 198.37,-4.62 83,-26 80.33,-26.49 77.63,-27.13 74.92,-27.86"/>
<polygon fill="black" stroke="black" points="73.73,-24.56 65.22,-30.87 75.81,-31.25 73.73,-24.56"/>
<text text-anchor="middle" x="215" y="-29.8" font-family="Times,serif" font-size="14.00">Resposta &#39;002|OK&#39; ou dados de PING</text>
</g>
<!-- display -->
<g id="node3" class="node">
<title>display</title>
<path fill="none" stroke="black" d="M853,-90C853,-90 777,-90 777,-90 771,-90 765,-84 765,-78 765,-78 765,-66 765,-66 765,-60 771,-54 777,-54 777,-54 853,-54 853,-54 859,-54 865,-60 865,-66 865,-66 865,-78 865,-78 865,-84 859,-90 853,-90"/>
<text text-anchor="middle" x="815" y="-68.3" font-family="Helvetica,sans-Serif" font-size="14.00">Display LCD</text>
</g>
<!-- arduino&#45;&gt;display -->
<g id="edge2" class="edge">
<title>arduino&#45;&gt;display</title>
<path fill="none" stroke="black" d="M476.08,-48.75C549.3,-53.79 678.89,-62.71 754.53,-67.91"/>
<polygon fill="black" stroke="black" points="754.62,-71.42 764.84,-68.62 755.1,-64.44 754.62,-71.42"/>
<text text-anchor="middle" x="620.5" y="-69.8" font-family="Times,serif" font-size="14.00">Atualiza linha correspondente</text>
</g>
<!-- buzzer -->
<g id="node4" class="node">
<title>buzzer</title>
<path fill="none" stroke="black" d="M835.5,-36C835.5,-36 794.5,-36 794.5,-36 788.5,-36 782.5,-30 782.5,-24 782.5,-24 782.5,-12 782.5,-12 782.5,-6 788.5,0 794.5,0 794.5,0 835.5,0 835.5,0 841.5,0 847.5,-6 847.5,-12 847.5,-12 847.5,-24 847.5,-24 847.5,-30 841.5,-36 835.5,-36"/>
<text text-anchor="middle" x="815" y="-14.3" font-family="Helvetica,sans-Serif" font-size="14.00">Buzzer</text>
</g>
<!-- arduino&#45;&gt;buzzer -->
<g id="edge3" class="edge">
<title>arduino&#45;&gt;buzzer</title>
<path fill="none" stroke="black" d="M476.39,-33.5C482.31,-32.53 488.27,-31.67 494,-31 593.2,-19.47 710.72,-17.72 772.02,-17.7"/>
<polygon fill="black" stroke="black" points="772.08,-21.2 782.08,-17.72 772.09,-14.2 772.08,-21.2"/>
<text text-anchor="middle" x="620.5" y="-34.8" font-family="Times,serif" font-size="14.00">Feedback sonoro (SUCCESS / FAIL)</text>
</g>
</g>
</svg>
