<?xml version="1.0" encoding="UTF-8" standalone="no"?>
<!DOCTYPE svg PUBLIC "-//W3C//DTD SVG 1.1//EN"
 "http://www.w3.org/Graphics/SVG/1.1/DTD/svg11.dtd">
<!-- Generated by graphviz version 2.43.0 (0)
 -->
<!-- Title: fluxo Pages: 1 -->
<!--zoomable 98 -->

<svg id="main" version="1.1" xmlns="http://www.w3.org/2000/svg" xmlns:xlink="http://www.w3.org/1999/xlink" xml:space="preserve" onload="init(evt)">
<style type="text/css"><![CDATA[
.node, .edge {opacity: 0.7;}
.node.selected, .edge.selected {opacity: 1;}
.edge:hover path { stroke: red; }
.edge:hover polygon { stroke: red; fill: red; }
]]></style>

<defs>
  <circle id="rim" cx="0" cy="0" r="7"/>
  <circle id="rim2" cx="0" cy="0" r="3.5"/>
  <g id="zoomPlus">
    <use xlink:href="#rim" fill="#404040"><set attributeName="fill" to="#808080" begin="zoomplus.mouseover" end="zoomplus.mouseout"/></use>
    <path d="M-4,0h8M0,-4v8" fill="none" stroke="white" stroke-width="1.5" pointer-events="none"/>
  </g>
  <g id="zoomMin">
    <use xlink:href="#rim" fill="#404040"><set attributeName="fill" to="#808080" begin="zoomminus.mouseover" end="zoomminus.mouseout"/></use>
    <path d="M-4,0h8" fill="none" stroke="white" stroke-width="1.5" pointer-events="none"/>
  </g>
  <g id="arrowUp" transform="translate(30 24)">
    <use xlink:href="#rim"/>
    <path pointer-events="none" fill="none" stroke="white" stroke-width="1.5" d="M0,-3.0v7 M-2.5,-0.5L0,-3.0L2.5,-0.5"/>
  </g>
  <g id="arrowRight" transform="rotate(90) translate(36 -43)">
    <use xlink:href="#rim"/>
    <path pointer-events="none" fill="none" stroke="white" stroke-width="1.5" d="M0,-3.0v7 M-2.5,-0.5L0,-3.0L2.5,-0.5"/>
  </g>
  <g id="arrowDown" transform="rotate(180) translate(-30 -48)">
    <use xlink:href="#rim"/>
    <path pointer-events="none" fill="none" stroke="white" stroke-width="1.5" d="M0,-3.0v7 M-2.5,-0.5L0,-3.0L2.5,-0.5"/>
  </g>
  <g id="arrowLeft" transform="rotate(270) translate(-36 17)">
    <use xlink:href="#rim"/>
    <path pointer-events="none" fill="none" stroke="white" stroke-width="1.5" d="M0,-3.0v7 M-2.5,-0.5L0,-3.0L2.5,-0.5"/>
  </g>
  <g id="resetDef">
    <use xlink:href="#rim2" fill="#404040"><set attributeName="fill" to="#808080" begin="reset.mouseover" end="reset.mouseout"/></use>
  </g>
</defs>
<script type="application/ecmascript">
var viewWidth = 873;
var viewHeight = 98;
</script>
<script type="application/ecmascript" xlink:href="svg.min.js"/>
<svg id="graph" class="graph">
<g id="viewport">
<title>fluxo</title>
<polygon fill="white" stroke="transparent" points="-4,4 -4,-94 869,-94 869,4 -4,4"/>
<!-- tvbox -->
<g id="node1" class="node">
<title>tvbox</title>
<path fill="none" stroke="black" d="M53,-63C53,-63 12,-63 12,-63 6,-63 0,-57 0,-51 0,-51 0,-39 0,-39 0,-33 6,-27 12,-27 12,-27 53,-27 53,-27 59,-27 65,-33 65,-39 65,-39 65,-51 65,-51 65,-57 59,-63 53,-63"/>
<text text-anchor="middle" x="32.5" y="-41.3" font-family="Helvetica,sans-Serif" font-size="14.00">TV&#45;Box</text>
</g>
<!-- arduino -->
<g id="node2" class="node">
<title>arduino</title>
<path fill="none" stroke="black" d="M464,-63C464,-63 377,-63 377,-63 371,-63 365,-57 365,-51 365,-51 365,-39 365,-39 365,-33 371,-27 377,-27 377,-27 464,-27 464,-27 470,-27 476,-33 476,-39 476,-39 476,-51 476,-51 476,-57 470,-63 464,-63"/>
<text text-anchor="middle" x="420.5" y="-41.3" font-family="Helvetica,sans-Serif" font-size="14.00">Arduino Nano</text>
</g>
<!-- tvbox&#45;&gt;arduino -->
<g id="edge1" class="edge">
<title>tvbox&#45;&gt;arduino</title>
<path fill="none" stroke="black" d="M65.09,-45C128.18,-45 270.9,-45 354.71,-45"/>
<polygon fill="black" stroke="black" points="354.88,-48.5 364.88,-45 354.88,-41.5 354.88,-48.5"/>
<text text-anchor="middle" x="215" y="-48.8" font-family="Times,serif" font-size="14.00">Mensagem serial &lt;code, msg, TTL&gt;</text>
</g>
<!-- arduino&#45;&gt;tvbox -->
<g id="edge4" class="edge">
<title>arduino&#45;&gt;tvbox</title>
<path fill="none" stroke="black" d="M364.77,-29.08C358.81,-27.82 352.81,-26.75 347,-26 230.63,-11 198.37,-4.62 83,-26 80.33,-26.49 77.63,-27.13 74.92,-27.86"/>
<polygon fill="black" stroke="black" points="73.73,-24.56 65.22,-30.87 75.81,-31.25 73.73,-24.56"/>
<text text-anchor="middle" x="215" y="-29.8" font-family="Times,serif" font-size="14.00">Resposta &#39;002|OK&#39; ou dados de PING</text>
</g>
<!-- display -->
<g id="node3" class="node">
<title>display</title>
<path fill="none" stroke="black" d="M853,-90C853,-90 777,-90 777,-90 771,-90 765,-84 765,-78 765,-78 765,-66 765,-66 765,-60 771,-54 777,-54 777,-54 853,-54 853,-54 859,-54 865,-60 865,-66 865,-66 865,-78 865,-78 865,-84 859,-90 853,-90"/>
<text text-anchor="middle" x="815" y="-68.3" font-family="Helvetica,sans-Serif" font-size="14.00">Display LCD</text>
</g>
<!-- arduino&#45;&gt;display -->
<g id="edge2" class="edge">
<title>arduino&#45;&gt;display</title>
<path fill="none" stroke="black" d="M476.08,-48.75C549.3,-53.79 678.89,-62.71 754.53,-67.91"/>
<polygon fill="black" stroke="black" points="754.62,-71.42 764.84,-68.62 755.1,-64.44 754.62,-71.42"/>
<text text-anchor="middle" x="620.5" y="-69.8" font-family="Times,serif" font-size="14.00">Atualiza linha correspondente</text>
</g>
<!-- buzzer -->
<g id="node4" class="node">
<title>buzzer</title>
<path fill="none" stroke="black" d="M835.5,-36C835.5,-36 794.5,-36 794.5,-36 788.5,-36 782.5,-30 782.5,-24 782.5,-24 782.5,-12 782.5,-12 782.5,-6 788.5,0 794.5,0 794.5,0 835.5,0 835.5,0 841.5,0 847.5,-6 847.5,-12 847.5,-12 847.5,-24 847.5,-24 847.5,-30 841.5,-36 835.5,-36"/>
<text text-anchor="middle" x="815" y="-14.3" font-family="Helvetica,sans-Serif" font-size="14.00">Buzzer</text>
</g>
<!-- arduino&#45;&gt;buzzer -->
<g id="edge3" class="edge">
<title>arduino&#45;&gt;buzzer</title>
<path fill="none" stroke="black" d="M476.39,-33.5C482.31,-32.53 488.27,-31.67 494,-31 593.2,-19.47 710.72,-17.72 772.02,-17.7"/>
<polygon fill="black" stroke="black" points="772.08,-21.2 782.08,-17.72 772.09,-14.2 772.08,-21.2"/>
<text text-anchor="middle" x="620.5" y="-34.8" font-family="Times,serif" font-size="14.00">Feedback sonoro (SUCCESS / FAIL)</text>
</g>
</g>
</svg>

<g id="navigator" transform="translate(0 0)" fill="#404254">
  <rect fill="#f2f5e9" fill-opacity="0.5" stroke="#606060" stroke-width=".5" x="0" y="0" width="60" height="60"/>
  <use id="zoomplus" xlink:href="#zoomPlus" x="17" y="9" onmousedown="handleZoom(evt,'in')"/>
  <use id="zoomminus" xlink:href="#zoomMin" x="42" y="9" onmousedown="handleZoom(evt,'out')"/>
  <use id="reset" xlink:href="#resetDef" x="30" y="36" onmousedown="handleReset()"/>
   <use id="arrowup" xlink:href="#arrowUp" x="0" y="0" onmousedown="handlePan(0,-1)"/>
  <use id="arrowright" xlink:href="#arrowRight" x="0" y="0" onmousedown="handlePan(1,0)"/>
  <use id="arrowdown" xlink:href="#arrowDown" x="0" y="0" onmousedown="handlePan(0,1)"/>
  <use id="arrowleft" xlink:href="#arrowLeft" x="0" y="0" onmousedown="handlePan(-1,0)"/>
</g>
<svg viewBox="0 0 15 15" width="100%" height="30px" preserveAspectRatio="xMaxYMin meet">
 <g id="arrow_out" transform="scale(0.3 0.3)">
  <a xlink:href="dot_inline_dotgraph_1_org.svg" target="_base">
   <rect id="button" ry="5" rx="5" y="6" x="6" height="38" width="38"
        fill="#f2f5e9" fill-opacity="0.5" stroke="#606060" stroke-width="1.0"/>
   <path id="arrow"
     d="M 11.500037,31.436501 C 11.940474,20.09759 22.043105,11.32322 32.158766,21.979434 L 37.068811,17.246167 C 37.068811,17.246167 37.088388,32 37.088388,32 L 22.160133,31.978069 C 22.160133,31.978069 26.997745,27.140456 26.997745,27.140456 C 18.528582,18.264221 13.291696,25.230495 11.500037,31.436501 z"
     style="fill:#404040;"/>
  </a>
 </g>
</svg>

<style type='text/css'>
<![CDATA[
[data-mouse-over-selected='false'] { opacity: 0.7; }
[data-mouse-over-selected='true']  { opacity: 1.0; }
]]>
</style>
<script type="application/ecmascript"><![CDATA[
document.addEventListener('DOMContentLoaded', (event) => {
  highlightEdges();
  highlightAdjacentNodes();
});
]]></script>
</svg>
